<svg xmlns="http://www.w3.org/2000/svg" viewBox="0 0 32 32" width="32" height="32">
  <defs>
    <linearGradient id="octo32" x1="0%" y1="0%" x2="100%" y2="100%">
      <stop offset="0%" style="stop-color:#C4B5FD"/>
      <stop offset="100%" style="stop-color:#7C3AED"/>
    </linearGradient>
  </defs>
  <!-- Head -->
  <ellipse cx="16" cy="11" rx="10" ry="8" fill="url(#octo32)"/>
  <!-- Highlight -->
  <ellipse cx="12" cy="8" rx="3" ry="2" fill="#DDD6FE" opacity="0.6"/>
  <!-- Eyes -->
  <circle cx="12" cy="10" r="2.5" fill="white"/>
  <circle cx="20" cy="10" r="2.5" fill="white"/>
  <circle cx="12.6" cy="10" r="1.2" fill="#1a1a2e"/>
  <circle cx="20.6" cy="10" r="1.2" fill="#1a1a2e"/>
  <!-- Smile -->
  <path d="M14 14 Q16 16 18 14" stroke="#7C3AED" stroke-width="1" fill="none" stroke-linecap="round"/>
  <!-- Tentacles -->
  <path d="M6 17 Q4 23 6 28" stroke="#9B7EDE" stroke-width="2" fill="none" stroke-linecap="round"/>
  <path d="M10 18 Q8 25 11 30" stroke="#9B7EDE" stroke-width="2" fill="none" stroke-linecap="round"/>
  <path d="M16 19 Q16 25 16 30" stroke="#9B7EDE" stroke-width="2" fill="none" stroke-linecap="round"/>
  <path d="M22 18 Q24 25 21 30" stroke="#9B7EDE" stroke-width="2" fill="none" stroke-linecap="round"/>
  <path d="M26 17 Q28 23 26 28" stroke="#9B7EDE" stroke-width="2" fill="none" stroke-linecap="round"/>
</svg>
