<svg xmlns="http://www.w3.org/2000/svg" viewBox="0 0 48 48" width="48" height="48">
  <defs>
    <linearGradient id="octo48" x1="0%" y1="0%" x2="100%" y2="100%">
      <stop offset="0%" style="stop-color:#C4B5FD"/>
      <stop offset="100%" style="stop-color:#7C3AED"/>
    </linearGradient>
    <filter id="shadow48" x="-20%" y="-20%" width="140%" height="140%">
      <feDropShadow dx="0" dy="2" stdDeviation="2" flood-color="#7C3AED" flood-opacity="0.3"/>
    </filter>
  </defs>
  <g filter="url(#shadow48)">
    <!-- Head -->
    <ellipse cx="24" cy="16" rx="15" ry="12" fill="url(#octo48)"/>
    <!-- Highlight -->
    <ellipse cx="18" cy="11" rx="5" ry="3" fill="#DDD6FE" opacity="0.5"/>
    <!-- Eyes -->
    <circle cx="18" cy="14" r="4" fill="white"/>
    <circle cx="30" cy="14" r="4" fill="white"/>
    <circle cx="19" cy="14" r="2" fill="#1a1a2e"/>
    <circle cx="31" cy="14" r="2" fill="#1a1a2e"/>
    <circle cx="19.5" cy="13.5" r="0.7" fill="white"/>
    <circle cx="31.5" cy="13.5" r="0.7" fill="white"/>
    <!-- Smile -->
    <path d="M21 21 Q24 24 27 21" stroke="#7C3AED" stroke-width="1.5" fill="none" stroke-linecap="round"/>
    <!-- Tentacles -->
    <path d="M9 26 Q6 35 9 44" stroke="#9B7EDE" stroke-width="3" fill="none" stroke-linecap="round"/>
    <path d="M15 27 Q12 38 16 46" stroke="#9B7EDE" stroke-width="3" fill="none" stroke-linecap="round"/>
    <path d="M24 28 Q24 38 24 46" stroke="#9B7EDE" stroke-width="3" fill="none" stroke-linecap="round"/>
    <path d="M33 27 Q36 38 32 46" stroke="#9B7EDE" stroke-width="3" fill="none" stroke-linecap="round"/>
    <path d="M39 26 Q42 35 39 44" stroke="#9B7EDE" stroke-width="3" fill="none" stroke-linecap="round"/>
  </g>
</svg>
