<svg xmlns="http://www.w3.org/2000/svg" viewBox="0 0 128 128" width="128" height="128">
  <defs>
    <linearGradient id="octo128" x1="0%" y1="0%" x2="100%" y2="100%">
      <stop offset="0%" style="stop-color:#C4B5FD"/>
      <stop offset="100%" style="stop-color:#7C3AED"/>
    </linearGradient>
    <linearGradient id="tentacle128" x1="0%" y1="0%" x2="0%" y2="100%">
      <stop offset="0%" style="stop-color:#A78BFA"/>
      <stop offset="100%" style="stop-color:#8B5CF6"/>
    </linearGradient>
    <filter id="shadow128" x="-20%" y="-20%" width="140%" height="140%">
      <feDropShadow dx="0" dy="4" stdDeviation="4" flood-color="#7C3AED" flood-opacity="0.25"/>
    </filter>
  </defs>
  <g filter="url(#shadow128)">
    <!-- Head -->
    <ellipse cx="64" cy="42" rx="40" ry="32" fill="url(#octo128)"/>
    <!-- Highlight -->
    <ellipse cx="48" cy="28" rx="14" ry="8" fill="#DDD6FE" opacity="0.5"/>
    <!-- Eyes -->
    <circle cx="48" cy="38" r="11" fill="white"/>
    <circle cx="80" cy="38" r="11" fill="white"/>
    <circle cx="50" cy="38" r="6" fill="#1a1a2e"/>
    <circle cx="82" cy="38" r="6" fill="#1a1a2e"/>
    <circle cx="52" cy="36" r="2" fill="white"/>
    <circle cx="84" cy="36" r="2" fill="white"/>
    <!-- Blush -->
    <ellipse cx="38" cy="48" rx="6" ry="3" fill="#FDA4AF" opacity="0.5"/>
    <ellipse cx="90" cy="48" rx="6" ry="3" fill="#FDA4AF" opacity="0.5"/>
    <!-- Smile -->
    <path d="M54 56 Q64 66 74 56" stroke="#7C3AED" stroke-width="3" fill="none" stroke-linecap="round"/>
    <!-- Tentacles -->
    <path d="M24 70 Q14 92 24 118" stroke="url(#tentacle128)" stroke-width="8" fill="none" stroke-linecap="round"/>
    <path d="M40 72 Q28 100 42 122" stroke="url(#tentacle128)" stroke-width="8" fill="none" stroke-linecap="round"/>
    <path d="M64 74 Q64 100 64 122" stroke="url(#tentacle128)" stroke-width="8" fill="none" stroke-linecap="round"/>
    <path d="M88 72 Q100 100 86 122" stroke="url(#tentacle128)" stroke-width="8" fill="none" stroke-linecap="round"/>
    <path d="M104 70 Q114 92 104 118" stroke="url(#tentacle128)" stroke-width="8" fill="none" stroke-linecap="round"/>
    <!-- Suction cups -->
    <circle cx="20" cy="95" r="3" fill="#DDD6FE"/>
    <circle cx="22" cy="108" r="3" fill="#DDD6FE"/>
    <circle cx="35" cy="100" r="3" fill="#DDD6FE"/>
    <circle cx="40" cy="114" r="3" fill="#DDD6FE"/>
    <circle cx="64" cy="98" r="3" fill="#DDD6FE"/>
    <circle cx="64" cy="112" r="3" fill="#DDD6FE"/>
    <circle cx="93" cy="100" r="3" fill="#DDD6FE"/>
    <circle cx="88" cy="114" r="3" fill="#DDD6FE"/>
    <circle cx="108" cy="95" r="3" fill="#DDD6FE"/>
    <circle cx="106" cy="108" r="3" fill="#DDD6FE"/>
  </g>
</svg>
